<?xml version="1.0" encoding="UTF-8"?>
<svg id="Layer_2" data-name="Layer 2" xmlns="http://www.w3.org/2000/svg" viewBox="0 0 32.08 64">
  <defs>
    <style>
      .cls-1 {
        fill: #3ba949;
      }
    </style>
  </defs>
  <g id="Layer_1-2" data-name="Layer 1">
    <path class="cls-1" d="m27.91,0c1.2.11,2.39.23,3.59.32.42.03.58.19.58.61-.01,3.04-.01,6.08,0,9.12,0,.46-.16.62-.62.62-1.56-.02-3.12-.02-4.68,0-.75.01-1.5.04-2.24.16-2.48.42-3.68,1.86-3.71,4.47-.03,2.66,0,5.33-.02,7.99,0,.54.2.66.7.66,2.96-.02,5.91,0,8.87-.02.59,0,.77.17.69.74-.36,2.8-.7,5.61-1.05,8.41-.07.54-.16,1.07-.19,1.61-.03.51-.23.72-.77.72-2.46-.02-4.91-.01-7.37,0q-.86,0-.86.85c0,8.93,0,17.86,0,26.79q0,.96-.95.97c-3.25,0-6.49,0-9.74,0-.86,0-.87,0-.87-.86,0-8.95,0-17.9,0-26.85q0-.89-.88-.89c-2.52,0-5.04,0-7.56,0-.81,0-.82,0-.82-.84,0-3.27.01-6.54-.01-9.8,0-.62.15-.83.8-.82,2.58.03,5.16,0,7.74.03.59,0,.74-.2.73-.75-.02-2.96-.05-5.91,0-8.87.05-2.73.59-5.38,1.93-7.79C13.35,2.7,16.73.72,20.99.09c.14-.02.28-.06.42-.09,2.17,0,4.33,0,6.5,0Z"/>
  </g>
</svg>