<?xml version="1.0" encoding="utf-8"?>
<!-- Generator: Adobe Illustrator 27.6.1, SVG Export Plug-In . SVG Version: 6.00 Build 0)  -->
<svg version="1.1" id="Layer_1" xmlns="http://www.w3.org/2000/svg" xmlns:xlink="http://www.w3.org/1999/xlink" x="0px" y="0px"
	 viewBox="0 0 545.2 454.3" style="enable-background:new 0 0 545.2 454.3;" xml:space="preserve">
<style type="text/css">
	.st0{fill:#4589C9;}
	.st1{fill:#7AC476;}
	.st2{fill:#6CC6ED;}
	.st3{fill:#3BA949;}
</style>
<g>
	<path class="st0" d="M64.7,114.2c0.4,15.1,3,30.1,7.8,44.6c6.3,19,16.4,37,30.4,52.9c9.1,10.3,19.4,19.2,30.7,26.6
		c7.9,5.2,14.6-2,10.4-10.5c-12.5-25.6-26-65.5-27.1-90.6c-0.6-14.1,0.3-28.4,2.8-42.5c2.6-14.4,6.8-28.7,12.8-42.7
		c0.7-1.5,1.3-3.1,2.1-4.6c0.5-1.2,1.1-2.3,1.7-3.5c2.2-4.6,4.6-9,7.1-13.4c3.5-6-2.8-12.9-9.1-10.1c-21.6,9.8-41.5,22.7-58.9,38.3
		c-1.9,1.7-3.4,3.9-4.1,6.4c0,0,0,0,0,0C66.5,81.1,64.2,97.6,64.7,114.2z"/>
	<path class="st1" d="M214.2,376.8c-22.8,9-47.7,13.7-73.6,13.4c-25.2-0.3-49.2-5.4-71.3-14.3c-7-2.8-12.9,5.8-7.7,11.3
		c22.3,23.4,49.4,42.1,79.8,54.6c7.6,3.1,15.9,3.9,23.9,2.1c60.9-13.7,111.2-55.8,136.1-111.8c0.1-0.1,0.1-0.3,0.2-0.4
		c3.3-7.5-6.6-13.8-12-7.6c-2.4,2.7-4.9,5.3-7.4,7.9C263.1,351.3,240,366.7,214.2,376.8z"/>
	<path class="st2" d="M33.3,300.5c59,39,125.4,46,186.6,14.2c0,0,0.1,0,0.1-0.1c5.8-3.1,3.4-13.2-3.5-13.2c-0.6,0-1,0-1.3,0
		c-55.8,9-106.5-7.8-151.7-48.6c-13.3-12-24.6-25.5-33.7-40c-4-6.4-8.7-16.2-12.6-25.4c-3-7-13.2-5.6-14.4,1.9
		c-2.7,17.4-3.5,35.4-2.1,53.7c0.8,10.3,2.3,20.5,4.3,30.4c0.7,3.5,2.5,6.7,5.2,9.1c0,0,0,0,0,0C17.6,289.2,25.3,295.2,33.3,300.5z"
		/>
	<path class="st3" d="M545.2,7.1c0-3.9-3.2-7.1-7.1-7.1H355.9h0c-49.7,0-84.2,10.9-121.5,31.4l-2.9,1.6
		c-14.2,7.9-26.8,18.6-36.8,31.2c-1.1,1.4-2.2,2.8-3.2,4.2c-8.1,11.1-14.4,23.6-18.4,37.1c-3.4,11.3-5.2,23.2-5.2,35.6
		c0,1.9,0,3.8,0.1,5.6c2.2,48.7,32.6,90.1,75.3,108.1c4.8,2,9.8,3.8,14.8,5.2c8.2,2.3,16.8,3.8,25.5,4.3c2.6,0.2,5.1,0.2,7.7,0.2
		c2.3,0,4.7-0.1,7-0.2c9.1-0.5,17.9-2,26.4-4.4c3.2-0.9,15.9-5.5,15.9-5.6c4.9-2.1,8.8,3.1,9.1,5.7c0.2,1.8,1.2,16.8,1.2,24.8
		c0,12.6-1,25.1-2.9,37.2c-7.4,46.1-28.2,87.6-58.3,120.6c-4.8,5.2,0.5,13.4,7.3,11.3c92.6-28.6,160.6-113.1,164.6-214.1
		c0.1-3.1,0.2-6.2,0.2-9.4c0-32.9-6.8-64.1-19-92.5c-11.9-27.7-29-52.6-50.1-73.5c0,0,0,0,0-0.1v0c-1.5-1.3-2.5-3.3-2.5-5.4
		c0-0.7,0.1-1.3,0.3-2c0.1-0.3,0.2-0.6,0.3-0.9c0.1-0.2,0.1-0.3,0.2-0.4c0.1-0.2,0.3-0.5,0.4-0.7c0.1-0.1,0.1-0.2,0.2-0.3
		c0,0,0,0,0.1-0.1c0.1-0.1,0.2-0.2,0.2-0.3c0.4-0.5,0.8-0.9,1.4-1.2c0.2-0.1,0.3-0.2,0.5-0.3c0.1-0.1,0.2-0.1,0.3-0.1
		c0.2-0.1,145.6-38.6,145.6-38.6l0,0C542.9,13.2,545.2,10.5,545.2,7.1z M302.3,185.8c-11.3,0-20.4-9.1-20.4-20.4
		c0-1.5,0.2-3,0.5-4.4h0l13-59h0c0.7-3.2,3.6-5.6,7-5.6s6.3,2.4,7,5.6h0l13,59h0c0.3,1.4,0.5,2.9,0.5,4.4
		C322.7,176.6,313.6,185.8,302.3,185.8z"/>
</g>
</svg>
