<?xml version="1.0" encoding="UTF-8"?>
<svg id="Layer_2" data-name="Layer 2" xmlns="http://www.w3.org/2000/svg" viewBox="0 0 64 64">
  <defs>
    <style>
      .cls-1 {
        fill: #3ba949;
      }
    </style>
  </defs>
  <g id="Layer_1-2" data-name="Layer 1">
    <g>
      <path class="cls-1" d="m47.36,36.78c-.12-.06-4.79-2.36-5.62-2.66-.34-.12-.7-.24-1.09-.24-.63,0-1.16.31-1.57.93-.47.69-1.88,2.34-2.31,2.83-.06.07-.13.14-.18.14-.04,0-.76-.3-.98-.39-5.01-2.17-8.8-7.4-9.33-8.28-.07-.13-.08-.18-.08-.18.02-.07.19-.24.27-.32.25-.25.53-.58.8-.9.13-.15.25-.3.38-.45.39-.45.56-.8.76-1.2l.1-.21c.49-.97.07-1.78-.06-2.05-.11-.22-2.08-4.98-2.29-5.47-.5-1.21-1.17-1.77-2.09-1.77-.09,0,0,0-.36.02-.44.02-2.82.33-3.88,1-1.12.71-3.01,2.95-3.01,6.91,0,3.56,2.26,6.92,3.23,8.2.02.03.07.1.13.19,3.71,5.42,8.34,9.44,13.04,11.32,4.52,1.8,6.66,2.01,7.87,2.01h0c.51,0,.92-.04,1.28-.08l.23-.02c1.56-.14,4.99-1.92,5.77-4.08.61-1.71.78-3.57.37-4.25-.28-.46-.76-.69-1.37-.99Z"/>
      <path class="cls-1" d="m32.57,0C15.23,0,1.13,14,1.13,31.2c0,5.56,1.49,11.01,4.31,15.78L.04,62.9c-.1.3-.03.63.19.85.16.16.37.25.59.25.08,0,.17-.01.25-.04l16.61-5.28c4.54,2.43,9.68,3.71,14.88,3.71,17.33,0,31.43-13.99,31.43-31.2S49.9,0,32.57,0Zm0,55.89c-4.89,0-9.63-1.41-13.7-4.08-.14-.09-.3-.14-.46-.14-.08,0-.17.01-.25.04l-8.32,2.64,2.69-7.92c.09-.26.04-.54-.12-.76-3.1-4.24-4.74-9.24-4.74-14.48,0-13.62,11.17-24.7,24.9-24.7s24.9,11.08,24.9,24.7c0,13.62-11.17,24.7-24.9,24.7Z"/>
    </g>
  </g>
</svg>