<?xml version="1.0" encoding="UTF-8"?>
<svg id="Layer_2" data-name="Layer 2" xmlns="http://www.w3.org/2000/svg" viewBox="0 0 64.28 64">
  <defs>
    <style>
      .cls-1 {
        fill: #3ba949;
      }
    </style>
  </defs>
  <g id="Layer_1-2" data-name="Layer 1">
    <g>
      <path class="cls-1" d="m45.96,64h-28.28c-.04-.24-.2-.29-.41-.28-1.12,0-2.2-.24-3.28-.49-2.91-.69-5.57-1.85-7.83-3.85-3.84-3.4-5.53-7.77-5.86-12.75-.05-.76-.04-1.53-.1-2.3-.03.14-.03.29-.05.43-.08.52.04,1.07-.15,1.58v-28.46c.16.58.09,1.18.22,1.77.02-.21.02-.42.02-.63-.03-1.44.1-2.87.38-4.29.51-2.56,1.37-4.98,2.9-7.13C6.68,3.11,11.22,1,16.52.36,19.15.04,21.81.03,24.46.03c6.93,0,13.87-.13,20.8.15,2.17.09,4.29.39,6.36.99,3.93,1.14,7.1,3.36,9.34,6.77,1.94,2.95,2.9,6.23,3.02,9.76.02.51.06,1.02.09,1.53.17-.37.03-.75.19-1.11v26.86c-.13-.21-.06-.48-.16-.7-.04.08-.05.16-.05.24,0,1.99-.17,3.95-.65,5.9-1.96,8.07-8.34,12.77-16.57,13.3-.56.04-1.12.07-1.68.1.26.13.54.03.79.18Zm12.43-33.37c-.08-2.75.15-6.9-.15-11.04-.1-1.37-.17-2.73-.41-4.09-.82-4.6-3.96-7.89-8.54-8.91-2.34-.52-4.72-.59-7.1-.69-2.03-.09-4.07-.02-6.1-.06-2.85-.04-5.7-.05-8.55.02-2.77.07-5.54-.01-8.31.17-1.41.09-2.81.18-4.17.51-4.48,1.08-7.33,3.81-8.45,8.3-.58,2.34-.59,4.72-.7,7.1-.1,2.21-.03,4.42-.06,6.63-.04,2.66-.04,5.33.02,7.99.07,2.85-.05,5.7.19,8.55.14,1.69.25,3.37.8,4.99,1.34,3.96,4.06,6.38,8.15,7.32,2.44.56,4.94.67,7.42.68,7.39,0,14.78.2,22.17-.12,1.58-.07,3.16-.18,4.7-.54,4.43-1.05,7.24-3.78,8.38-8.18.64-2.46.63-4.99.7-7.5.1-3.25.02-6.5.02-11.14Z"/>
      <path class="cls-1" d="m48.68,32.07c.1,7.87-6.21,15.73-15.39,16.36-9.62.66-16.89-6.73-17.63-14.78-.9-9.69,6.47-17.18,14.78-18.05,9.76-1.02,18.32,6.89,18.24,16.46Zm-5.94-.06c.26-5.24-4.19-10.53-10.55-10.61-5.48-.07-10.7,4.31-10.72,10.69-.02,5.46,4.51,10.5,10.73,10.51,5.83.01,10.79-4.96,10.54-10.6Z"/>
      <path class="cls-1" d="m49.28,11.06c2.12,0,3.92,1.81,3.9,3.91-.02,2.11-1.8,3.89-3.89,3.89-2.17,0-3.92-1.75-3.92-3.93,0-2.08,1.81-3.87,3.91-3.87Z"/>
    </g>
  </g>
</svg>