<?xml version="1.0" encoding="UTF-8"?>
<svg id="Layer_2" data-name="Layer 2" xmlns="http://www.w3.org/2000/svg" viewBox="0 0 64 64">
  <defs>
    <style>
      .cls-1 {
        fill: #3ba949;
      }
    </style>
  </defs>
  <g id="Layer_1-2" data-name="Layer 1">
    <g>
      <path class="cls-1" d="m22.62,63.99c-.01-.27-.04-.54-.04-.81,0-13.66,0-27.32,0-40.99q0-.99.98-.99c3.67,0,7.33,0,11,0,.85,0,.85,0,.85.87,0,1.58,0,3.16,0,4.73.26.04.28-.14.35-.25,2.53-3.92,6.22-5.9,10.78-6.35,3.06-.3,6.07.02,8.95,1.15,3.99,1.55,6.22,4.65,7.39,8.63.59,2.02.9,4.1,1.02,6.2,0,.14.05.28.08.43,0,8.96,0,17.91.01,26.87,0,.43-.08.51-.51.51-4.25-.02-8.5-.01-12.75-.01-.02-.31-.05-.62-.05-.93-.05-7.7.12-15.4-.12-23.1-.05-1.61-.31-3.19-1-4.67-.78-1.67-2.05-2.74-3.88-3.13-1.11-.24-2.25-.23-3.36-.09-2.32.28-4.1,1.41-5.15,3.56-.79,1.62-1.13,3.36-1.14,5.14-.05,7.74-.04,15.49-.05,23.23h-13.37Z"/>
      <path class="cls-1" d="m1,63.99c-.01-.27-.03-.54-.03-.81,0-13.64,0-27.29,0-40.93,0-.21,0-.42,0-.62,0-.28.15-.41.43-.41.12,0,.25,0,.37,0,3.94,0,7.87.01,11.81-.01.62,0,.83.16.83.81-.02,13.81-.01,27.62-.01,41.43,0,.19-.02.37-.03.56H1Z"/>
      <path class="cls-1" d="m9,0c2.59.58,4.56,1.98,5.71,4.41,2.21,4.66-.82,10.3-5.91,11.01C4.77,15.98,1.1,13.45.11,9.42.08,9.28.04,9.14,0,9c0-.87,0-1.75,0-2.62.23-.86.48-1.71.93-2.5C2.15,1.75,4.02.53,6.37,0h2.62Z"/>
    </g>
  </g>
</svg>